<svg xmlns="http://www.w3.org/2000/svg" viewBox="0 0 1280 585" preserveAspectRatio="xMidYMid" width="1280" height="585" style="shape-rendering: auto; display: block; background: rgb(7, 56, 116);"><g data-idx="1"><g transform="matrix(0.9659258262890683,0.25881904510252074,-0.25881904510252074,0.9659258262890683,97.51204186748362,-97.17749305516577)" data-idx="2">
<path stroke-width="53" stroke-opacity="0" stroke="rgb(127, 244, 89)" fill="none" d="M -320 -7.84504 C 0 -7.84504 320 7.84504 640 7.84504 C 960 7.84504 1280 -7.84504 1600 -7.84504 C 1920 -7.84504 2240 7.84504 2560 7.84504 C 2880 7.84504 3200 -7.84504 3520 -7.84504" data-idx="3" transform="matrix(1,0,0,1,-1483.199951171875,0)">
  
  
  
</path>
</g><g transform="matrix(0.9659258262890683,0.25881904510252074,-0.25881904510252074,0.9659258262890683,97.51204186748362,369.2625093862405)" data-idx="7">
<path stroke-width="53" stroke-opacity="0" stroke="rgb(126, 243, 90)" fill="none" d="M -320 -9.65646 C 0 -9.65646 320 9.65646 640 9.65646 C 960 9.65646 1280 -9.65646 1600 -9.65646 C 1920 -9.65646 2240 9.65646 2560 9.65646 C 2880 9.65646 3200 -9.65646 3520 -9.65646" data-idx="8" transform="matrix(1,0,0,1,-1493.4398193359375,0)">
  
  
  
</path>
</g><g transform="matrix(0.9659258262890683,0.25881904510252074,-0.25881904510252074,0.9659258262890683,97.51204186748362,-94.057494123281)" data-idx="12">
<path stroke-width="53" stroke-opacity="0" stroke="rgb(126, 242, 91)" fill="none" d="M -320 -11.4384 C 0 -11.4384 320 11.4384 640 11.4384 C 960 11.4384 1280 -11.4384 1600 -11.4384 C 1920 -11.4384 2240 11.4384 2560 11.4384 C 2880 11.4384 3200 -11.4384 3520 -11.4384" data-idx="13" transform="matrix(1,0,0,1,-1503.6796875,0)">
  
  
  
</path>
</g><g transform="matrix(0.9659258262890683,0.25881904510252074,-0.25881904510252074,0.9659258262890683,97.51204186748362,366.142514269053)" data-idx="17">
<path stroke-width="53" stroke-opacity="0" stroke="rgb(126, 240, 92)" fill="none" d="M -320 -13.1863 C 0 -13.1863 320 13.1863 640 13.1863 C 960 13.1863 1280 -13.1863 1600 -13.1863 C 1920 -13.1863 2240 13.1863 2560 13.1863 C 2880 13.1863 3200 -13.1863 3520 -13.1863" data-idx="18" transform="matrix(1,0,0,1,-1513.9200439453125,0)">
  
  
  
</path>
</g><g transform="matrix(0.9659258262890683,0.25881904510252074,-0.25881904510252074,0.9659258262890683,97.51204186748362,-90.93749519139624)" data-idx="22">
<path stroke-width="53" stroke-opacity="0" stroke="rgb(126, 238, 93)" fill="none" d="M -320 -14.8958 C 0 -14.8958 320 14.8958 640 14.8958 C 960 14.8958 1280 -14.8958 1600 -14.8958 C 1920 -14.8958 2240 14.8958 2560 14.8958 C 2880 14.8958 3200 -14.8958 3520 -14.8958" data-idx="23" transform="matrix(1,0,0,1,-1524.159912109375,0)">
  
  
  
</path>
</g><g transform="matrix(0.9659258262890683,0.25881904510252074,-0.25881904510252074,0.9659258262890683,97.51204186748362,363.0225191518655)" data-idx="27">
<path stroke-width="53" stroke-opacity="0" stroke="rgb(125, 236, 95)" fill="none" d="M -320 -16.5633 C 0 -16.5633 320 16.5633 640 16.5633 C 960 16.5633 1280 -16.5633 1600 -16.5633 C 1920 -16.5633 2240 16.5633 2560 16.5633 C 2880 16.5633 3200 -16.5633 3520 -16.5633" data-idx="28" transform="matrix(1,0,0,1,-1534.399658203125,0)">
  
  
  
</path>
</g><g transform="matrix(0.9659258262890683,0.25881904510252074,-0.25881904510252074,0.9659258262890683,97.51204186748362,-87.8174924448142)" data-idx="32">
<path stroke-width="53" stroke-opacity="0" stroke="rgb(125, 233, 97)" fill="none" d="M -320 -18.1856 C 0 -18.1856 320 18.1856 640 18.1856 C 960 18.1856 1280 -18.1856 1600 -18.1856 C 1920 -18.1856 2240 18.1856 2560 18.1856 C 2880 18.1856 3200 -18.1856 3520 -18.1856" data-idx="33" transform="matrix(1,0,0,1,-1544.6400146484375,0)">
  
  
  
</path>
</g><g transform="matrix(0.9659258262890683,0.25881904510252074,-0.25881904510252074,0.9659258262890683,97.51204186748362,359.902524034678)" data-idx="37">
<path stroke-width="53" stroke-opacity="0" stroke="rgb(124, 230, 98)" fill="none" d="M -320 -19.76 C 0 -19.76 320 19.76 640 19.76 C 960 19.76 1280 -19.76 1600 -19.76 C 1920 -19.76 2240 19.76 2560 19.76 C 2880 19.76 3200 -19.76 3520 -19.76" data-idx="38" transform="matrix(1,0,0,1,-1554.8797607421875,0)">
  
  
  
</path>
</g><g transform="matrix(0.9659258262890683,0.25881904510252074,-0.25881904510252074,0.9659258262890683,97.51204186748362,-84.69748969823218)" data-idx="42">
<path stroke-width="53" stroke-opacity="0" stroke="rgb(124, 227, 101)" fill="none" d="M -320 -21.2841 C 0 -21.2841 320 21.2841 640 21.2841 C 960 21.2841 1280 -21.2841 1600 -21.2841 C 1920 -21.2841 2240 21.2841 2560 21.2841 C 2880 21.2841 3200 -21.2841 3520 -21.2841" data-idx="43" transform="matrix(1,0,0,1,-1565.11962890625,0)">
  
  
  
</path>
</g><g transform="matrix(0.9659258262890683,0.25881904510252074,-0.25881904510252074,0.9659258262890683,97.51204186748362,356.7825289174905)" data-idx="47">
<path stroke-width="53" stroke-opacity="0" stroke="rgb(123, 223, 103)" fill="none" d="M -320 -22.7563 C 0 -22.7563 320 22.7563 640 22.7563 C 960 22.7563 1280 -22.7563 1600 -22.7563 C 1920 -22.7563 2240 22.7563 2560 22.7563 C 2880 22.7563 3200 -22.7563 3520 -22.7563" data-idx="48" transform="matrix(1,0,0,1,-1575.3599853515625,0)">
  
  
  
</path>
</g><g transform="matrix(0.9659258262890683,0.25881904510252074,-0.25881904510252074,0.9659258262890683,97.51204186748362,-81.57749458104468)" data-idx="52">
<path stroke-width="53" stroke-opacity="0" stroke="rgb(122, 219, 106)" fill="none" d="M -320 -24.1752 C 0 -24.1752 320 24.1752 640 24.1752 C 960 24.1752 1280 -24.1752 1600 -24.1752 C 1920 -24.1752 2240 24.1752 2560 24.1752 C 2880 24.1752 3200 -24.1752 3520 -24.1752" data-idx="53" transform="matrix(1,0,0,1,-1585.599853515625,0)">
  
  
  
</path>
</g><g transform="matrix(0.9659258262890683,0.25881904510252074,-0.25881904510252074,0.9659258262890683,97.51204186748362,353.66250328272486)" data-idx="57">
<path stroke-width="53" stroke-opacity="0" stroke="rgb(121, 215, 109)" fill="none" d="M -320 -25.5397 C 0 -25.5397 320 25.5397 640 25.5397 C 960 25.5397 1280 -25.5397 1600 -25.5397 C 1920 -25.5397 2240 25.5397 2560 25.5397 C 2880 25.5397 3200 -25.5397 3520 -25.5397" data-idx="58" transform="matrix(1,0,0,1,-1595.8397216796875,0)">
  
  
  
</path>
</g><g transform="matrix(0.9659258262890683,0.25881904510252074,-0.25881904510252074,0.9659258262890683,97.51204186748362,-78.45749183446264)" data-idx="62">
<path stroke-width="53" stroke-opacity="0" stroke="rgb(121, 210, 112)" fill="none" d="M -320 -26.8494 C 0 -26.8494 320 26.8494 640 26.8494 C 960 26.8494 1280 -26.8494 1600 -26.8494 C 1920 -26.8494 2240 26.8494 2560 26.8494 C 2880 26.8494 3200 -26.8494 3520 -26.8494" data-idx="63" transform="matrix(1,0,0,1,-1606.0799560546875,0)">
  
  
  
</path>
</g><g transform="matrix(0.9659258262890683,0.25881904510252074,-0.25881904510252074,0.9659258262890683,97.51204186748362,350.54250816553736)" data-idx="67">
<path stroke-width="53" stroke-opacity="0" stroke="rgb(120, 204, 116)" fill="none" d="M -320 -28.1038 C 0 -28.1038 320 28.1038 640 28.1038 C 960 28.1038 1280 -28.1038 1600 -28.1038 C 1920 -28.1038 2240 28.1038 2560 28.1038 C 2880 28.1038 3200 -28.1038 3520 -28.1038" data-idx="68" transform="matrix(1,0,0,1,-1616.31982421875,0)">
  
  
  
</path>
</g><g transform="matrix(0.9659258262890683,0.25881904510252074,-0.25881904510252074,0.9659258262890683,97.51204186748362,-75.33749671727514)" data-idx="72">
<path stroke-width="53" stroke-opacity="0" stroke="rgb(119, 199, 120)" fill="none" d="M -320 -29.3029 C 0 -29.3029 320 29.3029 640 29.3029 C 960 29.3029 1280 -29.3029 1600 -29.3029 C 1920 -29.3029 2240 29.3029 2560 29.3029 C 2880 29.3029 3200 -29.3029 3520 -29.3029" data-idx="73" transform="matrix(1,0,0,1,-1626.5596923828125,0)">
  
  
  
</path>
</g><g transform="matrix(0.9659258262890683,0.25881904510252074,-0.25881904510252074,0.9659258262890683,97.51204186748362,347.42251304834986)" data-idx="77">
<path stroke-width="53" stroke-opacity="0" stroke="rgb(118, 192, 124)" fill="none" d="M -320 -30.4472 C 0 -30.4472 320 30.4472 640 30.4472 C 960 30.4472 1280 -30.4472 1600 -30.4472 C 1920 -30.4472 2240 30.4472 2560 30.4472 C 2880 30.4472 3200 -30.4472 3520 -30.4472" data-idx="78" transform="matrix(1,0,0,1,-1636.800048828125,0)">
  
  
  
</path>
</g><g transform="matrix(0.9659258262890683,0.25881904510252074,-0.25881904510252074,0.9659258262890683,97.51204186748362,-72.21749397069311)" data-idx="82">
<path stroke-width="53" stroke-opacity="0" stroke="rgb(116, 186, 128)" fill="none" d="M -320 -31.5367 C 0 -31.5367 320 31.5367 640 31.5367 C 960 31.5367 1280 -31.5367 1600 -31.5367 C 1920 -31.5367 2240 31.5367 2560 31.5367 C 2880 31.5367 3200 -31.5367 3520 -31.5367" data-idx="83" transform="matrix(1,0,0,1,-1647.0399169921875,0)">
  
  
  
</path>
</g><g transform="matrix(0.9659258262890683,0.25881904510252074,-0.25881904510252074,0.9659258262890683,97.51204186748362,344.30251793116236)" data-idx="87">
<path stroke-width="53" stroke-opacity="0" stroke="rgb(115, 179, 132)" fill="none" d="M -320 -32.5724 C 0 -32.5724 320 32.5724 640 32.5724 C 960 32.5724 1280 -32.5724 1600 -32.5724 C 1920 -32.5724 2240 32.5724 2560 32.5724 C 2880 32.5724 3200 -32.5724 3520 -32.5724" data-idx="88" transform="matrix(1,0,0,1,-1657.2796630859375,0)">
  
  
  
</path>
</g><g transform="matrix(0.9659258262890683,0.25881904510252074,-0.25881904510252074,0.9659258262890683,97.51204186748362,-69.09749122411108)" data-idx="92">
<path stroke-width="53" stroke-opacity="0" stroke="rgb(114, 173, 137)" fill="none" d="M -320 -33.5548 C 0 -33.5548 320 33.5548 640 33.5548 C 960 33.5548 1280 -33.5548 1600 -33.5548 C 1920 -33.5548 2240 33.5548 2560 33.5548 C 2880 33.5548 3200 -33.5548 3520 -33.5548" data-idx="93" transform="matrix(1,0,0,1,-1667.52001953125,0)">
  
  
  
</path>
</g><g transform="matrix(0.9659258262890683,0.25881904510252074,-0.25881904510252074,0.9659258262890683,97.51204186748362,341.18249229639673)" data-idx="97">
<path stroke-width="53" stroke-opacity="0" stroke="rgb(113, 166, 141)" fill="none" d="M -320 -34.4849 C 0 -34.4849 320 34.4849 640 34.4849 C 960 34.4849 1280 -34.4849 1600 -34.4849 C 1920 -34.4849 2240 34.4849 2560 34.4849 C 2880 34.4849 3200 -34.4849 3520 -34.4849" data-idx="98" transform="matrix(1,0,0,1,-1677.759765625,0)">
  
  
  
</path>
</g><g transform="matrix(0.9659258262890683,0.25881904510252074,-0.25881904510252074,0.9659258262890683,97.51204186748362,-65.97749610692358)" data-idx="102">
<path stroke-width="53" stroke-opacity="0" stroke="rgb(112, 159, 146)" fill="none" d="M -320 -35.3636 C 0 -35.3636 320 35.3636 640 35.3636 C 960 35.3636 1280 -35.3636 1600 -35.3636 C 1920 -35.3636 2240 35.3636 2560 35.3636 C 2880 35.3636 3200 -35.3636 3520 -35.3636" data-idx="103" transform="matrix(1,0,0,1,-1687.9996337890625,0)">
  
  
  
</path>
</g><g transform="matrix(0.9659258262890683,0.25881904510252074,-0.25881904510252074,0.9659258262890683,97.51204186748362,338.06249717920923)" data-idx="107">
<path stroke-width="53" stroke-opacity="0" stroke="rgb(110, 152, 151)" fill="none" d="M -320 -36.192 C 0 -36.192 320 36.192 640 36.192 C 960 36.192 1280 -36.192 1600 -36.192 C 1920 -36.192 2240 36.192 2560 36.192 C 2880 36.192 3200 -36.192 3520 -36.192" data-idx="108" transform="matrix(1,0,0,1,-1698.239990234375,0)">
  
  
  
</path>
</g><g transform="matrix(0.9659258262890683,0.25881904510252074,-0.25881904510252074,0.9659258262890683,97.51204186748362,-62.85749336034155)" data-idx="112">
<path stroke-width="53" stroke-opacity="0" stroke="rgb(109, 145, 155)" fill="none" d="M -320 -36.9712 C 0 -36.9712 320 36.9712 640 36.9712 C 960 36.9712 1280 -36.9712 1600 -36.9712 C 1920 -36.9712 2240 36.9712 2560 36.9712 C 2880 36.9712 3200 -36.9712 3520 -36.9712" data-idx="113" transform="matrix(1,0,0,1,-1708.4798583984375,0)">
  
  
  
</path>
</g><g transform="matrix(0.9659258262890683,0.25881904510252074,-0.25881904510252074,0.9659258262890683,97.51204186748362,334.94250206202173)" data-idx="117">
<path stroke-width="53" stroke-opacity="0" stroke="rgb(108, 138, 160)" fill="none" d="M -320 -37.7023 C 0 -37.7023 320 37.7023 640 37.7023 C 960 37.7023 1280 -37.7023 1600 -37.7023 C 1920 -37.7023 2240 37.7023 2560 37.7023 C 2880 37.7023 3200 -37.7023 3520 -37.7023" data-idx="118" transform="matrix(1,0,0,1,-1718.7197265625,0)">
  
  
  
</path>
</g><g transform="matrix(0.9659258262890683,0.25881904510252074,-0.25881904510252074,0.9659258262890683,97.51204186748362,-59.73749061375952)" data-idx="122">
<path stroke-width="53" stroke-opacity="0" stroke="rgb(107, 132, 164)" fill="none" d="M -320 -38.3866 C 0 -38.3866 320 38.3866 640 38.3866 C 960 38.3866 1280 -38.3866 1600 -38.3866 C 1920 -38.3866 2240 38.3866 2560 38.3866 C 2880 38.3866 3200 -38.3866 3520 -38.3866" data-idx="123" transform="matrix(1,0,0,1,-1728.9599609375,0)">
  
  
  
</path>
</g><g transform="matrix(0.9659258262890683,0.25881904510252074,-0.25881904510252074,0.9659258262890683,97.51204186748362,331.82250694483423)" data-idx="127">
<path stroke-width="53" stroke-opacity="0" stroke="rgb(106, 126, 168)" fill="none" d="M -320 -39.0252 C 0 -39.0252 320 39.0252 640 39.0252 C 960 39.0252 1280 -39.0252 1600 -39.0252 C 1920 -39.0252 2240 39.0252 2560 39.0252 C 2880 39.0252 3200 -39.0252 3520 -39.0252" data-idx="128" transform="matrix(1,0,0,1,-1739.1998291015625,0)">
  
  
  
</path>
</g><g transform="matrix(0.9659258262890683,0.25881904510252074,-0.25881904510252074,0.9659258262890683,97.51204186748362,-56.61749549657202)" data-idx="132">
<path stroke-width="53" stroke-opacity="0" stroke="rgb(105, 121, 171)" fill="none" d="M -320 -39.6193 C 0 -39.6193 320 39.6193 640 39.6193 C 960 39.6193 1280 -39.6193 1600 -39.6193 C 1920 -39.6193 2240 39.6193 2560 39.6193 C 2880 39.6193 3200 -39.6193 3520 -39.6193" data-idx="133" transform="matrix(1,0,0,1,-1749.439697265625,0)">
  
  
  
</path>
</g><g transform="matrix(0.9659258262890683,0.25881904510252074,-0.25881904510252074,0.9659258262890683,97.51204186748362,328.70251182764673)" data-idx="137">
<path stroke-width="53" stroke-opacity="0" stroke="rgb(104, 116, 175)" fill="none" d="M -320 -40.1701 C 0 -40.1701 320 40.1701 640 40.1701 C 960 40.1701 1280 -40.1701 1600 -40.1701 C 1920 -40.1701 2240 40.1701 2560 40.1701 C 2880 40.1701 3200 -40.1701 3520 -40.1701" data-idx="138" transform="matrix(1,0,0,1,-1759.679931640625,0)">
  
  
  
</path>
</g><g transform="matrix(0.9659258262890683,0.25881904510252074,-0.25881904510252074,0.9659258262890683,97.51204186748362,-53.49749274998999)" data-idx="142">
<path stroke-width="53" stroke-opacity="0" stroke="rgb(103, 111, 178)" fill="none" d="M -320 -40.6787 C 0 -40.6787 320 40.6787 640 40.6787 C 960 40.6787 1280 -40.6787 1600 -40.6787 C 1920 -40.6787 2240 40.6787 2560 40.6787 C 2880 40.6787 3200 -40.6787 3520 -40.6787" data-idx="143" transform="matrix(1,0,0,1,-1769.919921875,0)">
  
  
  
</path>
</g><g transform="matrix(0.9659258262890683,0.25881904510252074,-0.25881904510252074,0.9659258262890683,97.51204186748362,325.58251671045923)" data-idx="147">
<path stroke-width="53" stroke-opacity="0" stroke="rgb(102, 107, 181)" fill="none" d="M -320 -41.1465 C 0 -41.1465 320 41.1465 640 41.1465 C 960 41.1465 1280 -41.1465 1600 -41.1465 C 1920 -41.1465 2240 41.1465 2560 41.1465 C 2880 41.1465 3200 -41.1465 3520 -41.1465" data-idx="148" transform="matrix(1,0,0,1,-1780.15966796875,0)">
  
  
  
</path>
</g><g transform="matrix(0.9659258262890683,0.25881904510252074,-0.25881904510252074,0.9659258262890683,97.51204186748362,-50.37749000340796)" data-idx="152">
<path stroke-width="53" stroke-opacity="0" stroke="rgb(102, 103, 183)" fill="none" d="M -320 -41.5745 C 0 -41.5745 320 41.5745 640 41.5745 C 960 41.5745 1280 -41.5745 1600 -41.5745 C 1920 -41.5745 2240 41.5745 2560 41.5745 C 2880 41.5745 3200 -41.5745 3520 -41.5745" data-idx="153" transform="matrix(1,0,0,1,-1790.4000244140625,0)">
  
  
  
</path>
</g><g transform="matrix(0.9659258262890683,0.25881904510252074,-0.25881904510252074,0.9659258262890683,97.51204186748362,322.46252159327173)" data-idx="157">
<path stroke-width="53" stroke-opacity="0" stroke="rgb(101, 99, 186)" fill="none" d="M -320 -41.9638 C 0 -41.9638 320 41.9638 640 41.9638 C 960 41.9638 1280 -41.9638 1600 -41.9638 C 1920 -41.9638 2240 41.9638 2560 41.9638 C 2880 41.9638 3200 -41.9638 3520 -41.9638" data-idx="158" transform="matrix(1,0,0,1,-1800.639892578125,0)">
  
  
  
</path>
</g><g transform="matrix(0.9659258262890683,0.25881904510252074,-0.25881904510252074,0.9659258262890683,97.51204186748362,-47.25749488622046)" data-idx="162">
<path stroke-width="53" stroke-opacity="0" stroke="rgb(100, 96, 188)" fill="none" d="M -320 -42.3156 C 0 -42.3156 320 42.3156 640 42.3156 C 960 42.3156 1280 -42.3156 1600 -42.3156 C 1920 -42.3156 2240 42.3156 2560 42.3156 C 2880 42.3156 3200 -42.3156 3520 -42.3156" data-idx="163" transform="matrix(1,0,0,1,-1810.879638671875,0)">
  
  
  
</path>
</g><g transform="matrix(0.9659258262890683,0.25881904510252074,-0.25881904510252074,0.9659258262890683,97.51204186748362,319.3424959585061)" data-idx="167">
<path stroke-width="53" stroke-opacity="0" stroke="rgb(100, 93, 189)" fill="none" d="M -320 -42.631 C 0 -42.631 320 42.631 640 42.631 C 960 42.631 1280 -42.631 1600 -42.631 C 1920 -42.631 2240 42.631 2560 42.631 C 2880 42.631 3200 -42.631 3520 -42.631" data-idx="168" transform="matrix(1,0,0,1,-1821.1199951171875,0)">
  
  
  
</path>
</g><g transform="matrix(0.9659258262890683,0.25881904510252074,-0.25881904510252074,0.9659258262890683,97.51204186748362,-44.137492139638425)" data-idx="172">
<path stroke-width="53" stroke-opacity="0" stroke="rgb(100, 91, 191)" fill="none" d="M -320 -42.911 C 0 -42.911 320 42.911 640 42.911 C 960 42.911 1280 -42.911 1600 -42.911 C 1920 -42.911 2240 42.911 2560 42.911 C 2880 42.911 3200 -42.911 3520 -42.911" data-idx="173" transform="matrix(1,0,0,1,-1831.3597412109375,0)">
  
  
  
</path>
</g><g transform="matrix(0.9659258262890683,0.25881904510252074,-0.25881904510252074,0.9659258262890683,97.51204186748362,316.2225008413186)" data-idx="177">
<path stroke-width="53" stroke-opacity="0" stroke="rgb(99, 89, 192)" fill="none" d="M -320 -43.1566 C 0 -43.1566 320 43.1566 640 43.1566 C 960 43.1566 1280 -43.1566 1600 -43.1566 C 1920 -43.1566 2240 43.1566 2560 43.1566 C 2880 43.1566 3200 -43.1566 3520 -43.1566" data-idx="178" transform="matrix(1,0,0,1,-1841.5997314453125,0)">
  
  
  
</path>
</g><g transform="matrix(0.9659258262890683,0.25881904510252074,-0.25881904510252074,0.9659258262890683,97.51204186748362,-41.017489393056394)" data-idx="182">
<path stroke-width="53" stroke-opacity="0" stroke="rgb(99, 87, 194)" fill="none" d="M -320 -43.3689 C 0 -43.3689 320 43.3689 640 43.3689 C 960 43.3689 1280 -43.3689 1600 -43.3689 C 1920 -43.3689 2240 43.3689 2560 43.3689 C 2880 43.3689 3200 -43.3689 3520 -43.3689" data-idx="183" transform="matrix(1,0,0,1,-1851.8399658203125,0)">
  
  
  
</path>
</g><g transform="matrix(0.9659258262890683,0.25881904510252074,-0.25881904510252074,0.9659258262890683,97.51204186748362,313.1025057241311)" data-idx="187">
<path stroke-width="53" stroke-opacity="0" stroke="rgb(99, 86, 195)" fill="none" d="M -320 -43.5488 C 0 -43.5488 320 43.5488 640 43.5488 C 960 43.5488 1280 -43.5488 1600 -43.5488 C 1920 -43.5488 2240 43.5488 2560 43.5488 C 2880 43.5488 3200 -43.5488 3520 -43.5488" data-idx="188" transform="matrix(1,0,0,1,-1862.079833984375,0)">
  
  
  
</path>
</g><g transform="matrix(0.9659258262890683,0.25881904510252074,-0.25881904510252074,0.9659258262890683,97.51204186748362,-37.897494275868894)" data-idx="192">
<path stroke-width="53" stroke-opacity="0" stroke="rgb(98, 84, 195)" fill="none" d="M -320 -43.6972 C 0 -43.6972 320 43.6972 640 43.6972 C 960 43.6972 1280 -43.6972 1600 -43.6972 C 1920 -43.6972 2240 43.6972 2560 43.6972 C 2880 43.6972 3200 -43.6972 3520 -43.6972" data-idx="193" transform="matrix(1,0,0,1,-1872.3197021484375,0)">
  
  
  
</path>
</g><g transform="matrix(0.9659258262890683,0.25881904510252074,-0.25881904510252074,0.9659258262890683,97.51204186748362,309.9825106069436)" data-idx="197">
<path stroke-width="53" stroke-opacity="0" stroke="rgb(98, 83, 196)" fill="none" d="M -320 -43.8151 C 0 -43.8151 320 43.8151 640 43.8151 C 960 43.8151 1280 -43.8151 1600 -43.8151 C 1920 -43.8151 2240 43.8151 2560 43.8151 C 2880 43.8151 3200 -43.8151 3520 -43.8151" data-idx="198" transform="matrix(1,0,0,1,-1882.5599365234375,0)">
  
  
  
</path>
</g><g transform="matrix(0.9659258262890683,0.25881904510252074,-0.25881904510252074,0.9659258262890683,97.51204186748362,-34.77749152928686)" data-idx="202">
<path stroke-width="53" stroke-opacity="0" stroke="rgb(98, 83, 197)" fill="none" d="M -320 -43.9034 C 0 -43.9034 320 43.9034 640 43.9034 C 960 43.9034 1280 -43.9034 1600 -43.9034 C 1920 -43.9034 2240 43.9034 2560 43.9034 C 2880 43.9034 3200 -43.9034 3520 -43.9034" data-idx="203" transform="matrix(1,0,0,1,-1892.7998046875,0)">
  
  
  
</path>
</g><g transform="matrix(0.9659258262890683,0.25881904510252074,-0.25881904510252074,0.9659258262890683,97.51204186748362,306.8625154897561)" data-idx="207">
<path stroke-width="53" stroke-opacity="0" stroke="rgb(98, 82, 197)" fill="none" d="M -320 -43.9628 C 0 -43.9628 320 43.9628 640 43.9628 C 960 43.9628 1280 -43.9628 1600 -43.9628 C 1920 -43.9628 2240 43.9628 2560 43.9628 C 2880 43.9628 3200 -43.9628 3520 -43.9628" data-idx="208" transform="matrix(1,0,0,1,-1903.0396728515625,0)">
  
  
  
</path>
</g><g transform="matrix(0.9659258262890683,0.25881904510252074,-0.25881904510252074,0.9659258262890683,97.51204186748362,-31.657496412099363)" data-idx="212">
<path stroke-width="53" stroke-opacity="0" stroke="rgb(98, 82, 197)" fill="none" d="M -320 -43.9942 C 0 -43.9942 320 43.9942 640 43.9942 C 960 43.9942 1280 -43.9942 1600 -43.9942 C 1920 -43.9942 2240 43.9942 2560 43.9942 C 2880 43.9942 3200 -43.9942 3520 -43.9942" data-idx="213" transform="matrix(1,0,0,1,-1913.280029296875,0)">
  
  
  
</path>
</g><g transform="matrix(0.9659258262890683,0.25881904510252074,-0.25881904510252074,0.9659258262890683,97.51204186748362,303.7425203725686)" data-idx="217">
<path stroke-width="53" stroke-opacity="0" stroke="rgb(98, 82, 197)" fill="none" d="M -320 -43.9984 C 0 -43.9984 320 43.9984 640 43.9984 C 960 43.9984 1280 -43.9984 1600 -43.9984 C 1920 -43.9984 2240 43.9984 2560 43.9984 C 2880 43.9984 3200 -43.9984 3520 -43.9984" data-idx="218" transform="matrix(1,0,0,1,-3.5198400020599365,0)">
  
  
  
</path>
</g><g transform="matrix(0.9659258262890683,0.25881904510252074,-0.25881904510252074,0.9659258262890683,97.51204186748362,-28.53749366551733)" data-idx="222">
<path stroke-width="53" stroke-opacity="0" stroke="rgb(98, 82, 197)" fill="none" d="M -320 -43.9756 C 0 -43.9756 320 43.9756 640 43.9756 C 960 43.9756 1280 -43.9756 1600 -43.9756 C 1920 -43.9756 2240 43.9756 2560 43.9756 C 2880 43.9756 3200 -43.9756 3520 -43.9756" data-idx="223" transform="matrix(1,0,0,1,-13.75968074798584,0)">
  
  
  
</path>
</g><g transform="matrix(0.9659258262890683,0.25881904510252074,-0.25881904510252074,0.9659258262890683,97.51204186748362,300.622494737803)" data-idx="227">
<path stroke-width="53" stroke-opacity="0" stroke="rgb(98, 82, 197)" fill="none" d="M -320 -43.925 C 0 -43.925 320 43.925 640 43.925 C 960 43.925 1280 -43.925 1600 -43.925 C 1920 -43.925 2240 43.925 2560 43.925 C 2880 43.925 3200 -43.925 3520 -43.925" data-idx="228" transform="matrix(1,0,0,1,-24,0)">
  
  
  
</path>
</g><g transform="matrix(0.9659258262890683,0.25881904510252074,-0.25881904510252074,0.9659258262890683,97.51204186748362,-25.41749854832983)" data-idx="232">
<path stroke-width="53" stroke-opacity="0.022727272727272728" stroke="rgb(98, 83, 197)" fill="none" d="M -320 -43.8459 C 0 -43.8459 320 43.8459 640 43.8459 C 960 43.8459 1280 -43.8459 1600 -43.8459 C 1920 -43.8459 2240 43.8459 2560 43.8459 C 2880 43.8459 3200 -43.8459 3520 -43.8459" data-idx="233" transform="matrix(1,0,0,1,-34.239837646484375,0)">
  
  
  
</path>
</g><g transform="matrix(0.9659258262890683,0.25881904510252074,-0.25881904510252074,0.9659258262890683,97.51204186748362,297.5024996206155)" data-idx="237">
<path stroke-width="53" stroke-opacity="0.045454545454545456" stroke="rgb(97, 83, 197)" fill="none" d="M -320 -43.7373 C 0 -43.7373 320 43.7373 640 43.7373 C 960 43.7373 1280 -43.7373 1600 -43.7373 C 1920 -43.7373 2240 43.7373 2560 43.7373 C 2880 43.7373 3200 -43.7373 3520 -43.7373" data-idx="238" transform="matrix(1,0,0,1,-44.479679107666016,0)">
  
  
  
</path>
</g><g transform="matrix(0.9659258262890683,0.25881904510252074,-0.25881904510252074,0.9659258262890683,97.51204186748362,-22.29748817235327)" data-idx="242">
<path stroke-width="53" stroke-opacity="0.06818181818181818" stroke="rgb(97, 83, 197)" fill="none" d="M -320 -43.5985 C 0 -43.5985 320 43.5985 640 43.5985 C 960 43.5985 1280 -43.5985 1600 -43.5985 C 1920 -43.5985 2240 43.5985 2560 43.5985 C 2880 43.5985 3200 -43.5985 3520 -43.5985" data-idx="243" transform="matrix(1,0,0,1,-54.720001220703125,0)">
  
  
  
</path>
</g><g transform="matrix(0.9659258262890683,0.25881904510252074,-0.25881904510252074,0.9659258262890683,97.51204186748362,294.382504503428)" data-idx="247">
<path stroke-width="53" stroke-opacity="0.09090909090909091" stroke="rgb(96, 84, 198)" fill="none" d="M -320 -43.4286 C 0 -43.4286 320 43.4286 640 43.4286 C 960 43.4286 1280 -43.4286 1600 -43.4286 C 1920 -43.4286 2240 43.4286 2560 43.4286 C 2880 43.4286 3200 -43.4286 3520 -43.4286" data-idx="248" transform="matrix(1,0,0,1,-64.9598388671875,0)">
  
  
  
</path>
</g><g transform="matrix(0.9659258262890683,0.25881904510252074,-0.25881904510252074,0.9659258262890683,97.51204186748362,-19.17749305516577)" data-idx="252">
<path stroke-width="53" stroke-opacity="0.11363636363636363" stroke="rgb(96, 85, 198)" fill="none" d="M -320 -43.2265 C 0 -43.2265 320 43.2265 640 43.2265 C 960 43.2265 1280 -43.2265 1600 -43.2265 C 1920 -43.2265 2240 43.2265 2560 43.2265 C 2880 43.2265 3200 -43.2265 3520 -43.2265" data-idx="253" transform="matrix(1,0,0,1,-75.19967651367188,0)">
  
  
  
</path>
</g><g transform="matrix(0.9659258262890683,0.25881904510252074,-0.25881904510252074,0.9659258262890683,97.51204186748362,291.2625093862405)" data-idx="257">
<path stroke-width="53" stroke-opacity="0.13636363636363635" stroke="rgb(95, 86, 198)" fill="none" d="M -320 -42.9914 C 0 -42.9914 320 42.9914 640 42.9914 C 960 42.9914 1280 -42.9914 1600 -42.9914 C 1920 -42.9914 2240 42.9914 2560 42.9914 C 2880 42.9914 3200 -42.9914 3520 -42.9914" data-idx="258" transform="matrix(1,0,0,1,-85.44000244140625,0)">
  
  
  
</path>
</g><g transform="matrix(0.9659258262890683,0.25881904510252074,-0.25881904510252074,0.9659258262890683,97.51204186748362,-16.05749793797827)" data-idx="262">
<path stroke-width="53" stroke-opacity="0.1590909090909091" stroke="rgb(94, 87, 199)" fill="none" d="M -320 -42.7222 C 0 -42.7222 320 42.7222 640 42.7222 C 960 42.7222 1280 -42.7222 1600 -42.7222 C 1920 -42.7222 2240 42.7222 2560 42.7222 C 2880 42.7222 3200 -42.7222 3520 -42.7222" data-idx="263" transform="matrix(1,0,0,1,-95.67984008789062,0)">
  
  
  
</path>
</g><g transform="matrix(0.9659258262890683,0.25881904510252074,-0.25881904510252074,0.9659258262890683,97.51204186748362,288.142514269053)" data-idx="267">
<path stroke-width="53" stroke-opacity="0.18181818181818182" stroke="rgb(94, 88, 199)" fill="none" d="M -320 -42.418 C 0 -42.418 320 42.418 640 42.418 C 960 42.418 1280 -42.418 1600 -42.418 C 1920 -42.418 2240 42.418 2560 42.418 C 2880 42.418 3200 -42.418 3520 -42.418" data-idx="268" transform="matrix(1,0,0,1,-105.91968536376953,0)">
  
  
  
</path>
</g><g transform="matrix(0.9659258262890683,0.25881904510252074,-0.25881904510252074,0.9659258262890683,97.51204186748362,-12.937487562001706)" data-idx="272">
<path stroke-width="53" stroke-opacity="0.20454545454545456" stroke="rgb(92, 90, 199)" fill="none" d="M -320 -42.0777 C 0 -42.0777 320 42.0777 640 42.0777 C 960 42.0777 1280 -42.0777 1600 -42.0777 C 1920 -42.0777 2240 42.0777 2560 42.0777 C 2880 42.0777 3200 -42.0777 3520 -42.0777" data-idx="273" transform="matrix(1,0,0,1,-116.15999603271484,0)">
  
  
  
</path>
</g><g transform="matrix(0.9659258262890683,0.25881904510252074,-0.25881904510252074,0.9659258262890683,97.51204186748362,285.0225191518655)" data-idx="277">
<path stroke-width="53" stroke-opacity="0.22727272727272727" stroke="rgb(91, 91, 200)" fill="none" d="M -320 -41.7002 C 0 -41.7002 320 41.7002 640 41.7002 C 960 41.7002 1280 -41.7002 1600 -41.7002 C 1920 -41.7002 2240 41.7002 2560 41.7002 C 2880 41.7002 3200 -41.7002 3520 -41.7002" data-idx="278" transform="matrix(1,0,0,1,-126.39983367919922,0)">
  
  
  
</path>
</g><g transform="matrix(0.9659258262890683,0.25881904510252074,-0.25881904510252074,0.9659258262890683,97.51204186748362,-9.817492444814206)" data-idx="282">
<path stroke-width="53" stroke-opacity="0.25" stroke="rgb(90, 93, 201)" fill="none" d="M -320 -41.2845 C 0 -41.2845 320 41.2845 640 41.2845 C 960 41.2845 1280 -41.2845 1600 -41.2845 C 1920 -41.2845 2240 41.2845 2560 41.2845 C 2880 41.2845 3200 -41.2845 3520 -41.2845" data-idx="283" transform="matrix(1,0,0,1,-136.63967895507812,0)">
  
  
  
</path>
</g><g transform="matrix(0.9659258262890683,0.25881904510252074,-0.25881904510252074,0.9659258262890683,97.51204186748362,281.90249351709986)" data-idx="287">
<path stroke-width="53" stroke-opacity="0.2727272727272727" stroke="rgb(89, 95, 201)" fill="none" d="M -320 -40.8293 C 0 -40.8293 320 40.8293 640 40.8293 C 960 40.8293 1280 -40.8293 1600 -40.8293 C 1920 -40.8293 2240 40.8293 2560 40.8293 C 2880 40.8293 3200 -40.8293 3520 -40.8293" data-idx="288" transform="matrix(1,0,0,1,-146.8800048828125,0)">
  
  
  
</path>
</g><g transform="matrix(0.9659258262890683,0.25881904510252074,-0.25881904510252074,0.9659258262890683,97.51204186748362,-6.6974973276267065)" data-idx="292">
<path stroke-width="53" stroke-opacity="0.29545454545454547" stroke="rgb(87, 97, 202)" fill="none" d="M -320 -40.3335 C 0 -40.3335 320 40.3335 640 40.3335 C 960 40.3335 1280 -40.3335 1600 -40.3335 C 1920 -40.3335 2240 40.3335 2560 40.3335 C 2880 40.3335 3200 -40.3335 3520 -40.3335" data-idx="293" transform="matrix(1,0,0,1,-157.11984252929688,0)">
  
  
  
</path>
</g><g transform="matrix(0.9659258262890683,0.25881904510252074,-0.25881904510252074,0.9659258262890683,97.51204186748362,278.78249839991236)" data-idx="297">
<path stroke-width="53" stroke-opacity="0.3181818181818182" stroke="rgb(85, 99, 203)" fill="none" d="M -320 -39.796 C 0 -39.796 320 39.796 640 39.796 C 960 39.796 1280 -39.796 1600 -39.796 C 1920 -39.796 2240 39.796 2560 39.796 C 2880 39.796 3200 -39.796 3520 -39.796" data-idx="298" transform="matrix(1,0,0,1,-167.35968017578125,0)">
  
  
  
</path>
</g><g transform="matrix(0.9659258262890683,0.25881904510252074,-0.25881904510252074,0.9659258262890683,97.51204186748362,-3.577486951650144)" data-idx="302">
<path stroke-width="53" stroke-opacity="0.3409090909090909" stroke="rgb(84, 102, 203)" fill="none" d="M -320 -39.2156 C 0 -39.2156 320 39.2156 640 39.2156 C 960 39.2156 1280 -39.2156 1600 -39.2156 C 1920 -39.2156 2240 39.2156 2560 39.2156 C 2880 39.2156 3200 -39.2156 3520 -39.2156" data-idx="303" transform="matrix(1,0,0,1,-177.60000610351562,0)">
  
  
  
</path>
</g><g transform="matrix(0.9659258262890683,0.25881904510252074,-0.25881904510252074,0.9659258262890683,97.51204186748362,275.66250328272486)" data-idx="307">
<path stroke-width="53" stroke-opacity="0.36363636363636365" stroke="rgb(82, 105, 204)" fill="none" d="M -320 -38.591 C 0 -38.591 320 38.591 640 38.591 C 960 38.591 1280 -38.591 1600 -38.591 C 1920 -38.591 2240 38.591 2560 38.591 C 2880 38.591 3200 -38.591 3520 -38.591" data-idx="308" transform="matrix(1,0,0,1,-187.83984375,0)">
  
  
  
</path>
</g><g transform="matrix(0.9659258262890683,0.25881904510252074,-0.25881904510252074,0.9659258262890683,97.51204186748362,-0.45749183446264396)" data-idx="312">
<path stroke-width="53" stroke-opacity="0.38636363636363635" stroke="rgb(79, 108, 205)" fill="none" d="M -320 -37.9212 C 0 -37.9212 320 37.9212 640 37.9212 C 960 37.9212 1280 -37.9212 1600 -37.9212 C 1920 -37.9212 2240 37.9212 2560 37.9212 C 2880 37.9212 3200 -37.9212 3520 -37.9212" data-idx="313" transform="matrix(1,0,0,1,-198.07968139648438,0)">
  
  
  
</path>
</g><g transform="matrix(0.9659258262890683,0.25881904510252074,-0.25881904510252074,0.9659258262890683,97.51204186748362,272.54250816553736)" data-idx="317">
<path stroke-width="53" stroke-opacity="0.4090909090909091" stroke="rgb(77, 111, 206)" fill="none" d="M -320 -37.2048 C 0 -37.2048 320 37.2048 640 37.2048 C 960 37.2048 1280 -37.2048 1600 -37.2048 C 1920 -37.2048 2240 37.2048 2560 37.2048 C 2880 37.2048 3200 -37.2048 3520 -37.2048" data-idx="318" transform="matrix(1,0,0,1,-208.3199920654297,0)">
  
  
  
</path>
</g><g transform="matrix(0.9659258262890683,0.25881904510252074,-0.25881904510252074,0.9659258262890683,97.51204186748362,2.662503282724856)" data-idx="322">
<path stroke-width="53" stroke-opacity="0.4318181818181818" stroke="rgb(75, 114, 207)" fill="none" d="M -320 -36.4408 C 0 -36.4408 320 36.4408 640 36.4408 C 960 36.4408 1280 -36.4408 1600 -36.4408 C 1920 -36.4408 2240 36.4408 2560 36.4408 C 2880 36.4408 3200 -36.4408 3520 -36.4408" data-idx="323" transform="matrix(1,0,0,1,-218.55984497070312,0)">
  
  
  
</path>
</g><g transform="matrix(0.9659258262890683,0.25881904510252074,-0.25881904510252074,0.9659258262890683,97.51204186748362,269.42251304834986)" data-idx="327">
<path stroke-width="53" stroke-opacity="0.45454545454545453" stroke="rgb(73, 117, 208)" fill="none" d="M -320 -35.6279 C 0 -35.6279 320 35.6279 640 35.6279 C 960 35.6279 1280 -35.6279 1600 -35.6279 C 1920 -35.6279 2240 35.6279 2560 35.6279 C 2880 35.6279 3200 -35.6279 3520 -35.6279" data-idx="328" transform="matrix(1,0,0,1,-228.7996826171875,0)">
  
  
  
</path>
</g><g transform="matrix(0.9659258262890683,0.25881904510252074,-0.25881904510252074,0.9659258262890683,97.51204186748362,5.7825136587014185)" data-idx="332">
<path stroke-width="53" stroke-opacity="0.4772727272727273" stroke="rgb(70, 120, 209)" fill="none" d="M -320 -34.765 C 0 -34.765 320 34.765 640 34.765 C 960 34.765 1280 -34.765 1600 -34.765 C 1920 -34.765 2240 34.765 2560 34.765 C 2880 34.765 3200 -34.765 3520 -34.765" data-idx="333" transform="matrix(1,0,0,1,-239.0399932861328,0)">
  
  
  
</path>
</g><g transform="matrix(0.9659258262890683,0.25881904510252074,-0.25881904510252074,0.9659258262890683,97.51204186748362,266.30251793116236)" data-idx="337">
<path stroke-width="53" stroke-opacity="0.5" stroke="rgb(68, 123, 210)" fill="none" d="M -320 -33.851 C 0 -33.851 320 33.851 640 33.851 C 960 33.851 1280 -33.851 1600 -33.851 C 1920 -33.851 2240 33.851 2560 33.851 C 2880 33.851 3200 -33.851 3520 -33.851" data-idx="338" transform="matrix(1,0,0,1,-249.27984619140625,0)">
  
  
  
</path>
</g><g transform="matrix(0.9659258262890683,0.25881904510252074,-0.25881904510252074,0.9659258262890683,97.51204186748362,8.902508775888919)" data-idx="342">
<path stroke-width="53" stroke-opacity="0.5227272727272727" stroke="rgb(65, 127, 212)" fill="none" d="M -320 -32.8851 C 0 -32.8851 320 32.8851 640 32.8851 C 960 32.8851 1280 -32.8851 1600 -32.8851 C 1920 -32.8851 2240 32.8851 2560 32.8851 C 2880 32.8851 3200 -32.8851 3520 -32.8851" data-idx="343" transform="matrix(1,0,0,1,-259.5196838378906,0)">
  
  
  
</path>
</g><g transform="matrix(0.9659258262890683,0.25881904510252074,-0.25881904510252074,0.9659258262890683,97.51204186748362,263.18249229639673)" data-idx="347">
<path stroke-width="53" stroke-opacity="0.5454545454545454" stroke="rgb(63, 130, 213)" fill="none" d="M -320 -31.8662 C 0 -31.8662 320 31.8662 640 31.8662 C 960 31.8662 1280 -31.8662 1600 -31.8662 C 1920 -31.8662 2240 31.8662 2560 31.8662 C 2880 31.8662 3200 -31.8662 3520 -31.8662" data-idx="348" transform="matrix(1,0,0,1,-269.7599792480469,0)">
  
  
  
</path>
</g><g transform="matrix(0.9659258262890683,0.25881904510252074,-0.25881904510252074,0.9659258262890683,97.51204186748362,12.022503893076419)" data-idx="352">
<path stroke-width="53" stroke-opacity="0.5681818181818182" stroke="rgb(61, 133, 214)" fill="none" d="M -320 -30.7935 C 0 -30.7935 320 30.7935 640 30.7935 C 960 30.7935 1280 -30.7935 1600 -30.7935 C 1920 -30.7935 2240 30.7935 2560 30.7935 C 2880 30.7935 3200 -30.7935 3520 -30.7935" data-idx="353" transform="matrix(1,0,0,1,-279.9998474121094,0)">
  
  
  
</path>
</g><g transform="matrix(0.9659258262890683,0.25881904510252074,-0.25881904510252074,0.9659258262890683,97.51204186748362,260.06249717920923)" data-idx="357">
<path stroke-width="53" stroke-opacity="0.5909090909090909" stroke="rgb(59, 136, 214)" fill="none" d="M -320 -29.6665 C 0 -29.6665 320 29.6665 640 29.6665 C 960 29.6665 1280 -29.6665 1600 -29.6665 C 1920 -29.6665 2240 29.6665 2560 29.6665 C 2880 29.6665 3200 -29.6665 3520 -29.6665" data-idx="358" transform="matrix(1,0,0,1,-290.23968505859375,0)">
  
  
  
</path>
</g><g transform="matrix(0.9659258262890683,0.25881904510252074,-0.25881904510252074,0.9659258262890683,97.51204186748362,15.142514269052981)" data-idx="362">
<path stroke-width="53" stroke-opacity="0.6136363636363636" stroke="rgb(57, 139, 215)" fill="none" d="M -320 -28.4845 C 0 -28.4845 320 28.4845 640 28.4845 C 960 28.4845 1280 -28.4845 1600 -28.4845 C 1920 -28.4845 2240 28.4845 2560 28.4845 C 2880 28.4845 3200 -28.4845 3520 -28.4845" data-idx="363" transform="matrix(1,0,0,1,-300.47998046875,0)">
  
  
  
</path>
</g><g transform="matrix(0.9659258262890683,0.25881904510252074,-0.25881904510252074,0.9659258262890683,97.51204186748362,256.94250206202173)" data-idx="367">
<path stroke-width="53" stroke-opacity="0.6363636363636364" stroke="rgb(55, 141, 216)" fill="none" d="M -320 -27.2473 C 0 -27.2473 320 27.2473 640 27.2473 C 960 27.2473 1280 -27.2473 1600 -27.2473 C 1920 -27.2473 2240 27.2473 2560 27.2473 C 2880 27.2473 3200 -27.2473 3520 -27.2473" data-idx="368" transform="matrix(1,0,0,1,-310.7198486328125,0)">
  
  
  
</path>
</g><g transform="matrix(0.9659258262890683,0.25881904510252074,-0.25881904510252074,0.9659258262890683,97.51204186748362,18.26250938624048)" data-idx="372">
<path stroke-width="53" stroke-opacity="0.6590909090909091" stroke="rgb(53, 144, 217)" fill="none" d="M -320 -25.955 C 0 -25.955 320 25.955 640 25.955 C 960 25.955 1280 -25.955 1600 -25.955 C 1920 -25.955 2240 25.955 2560 25.955 C 2880 25.955 3200 -25.955 3520 -25.955" data-idx="373" transform="matrix(1,0,0,1,-320.9596862792969,0)">
  
  
  
</path>
</g><g data-idx="377"></g></g><text data-watermark="true" text-anchor="middle" dominant-baseline="middle" stroke-opacity="0.1" fill="black" fill-opacity="0.1" stroke="white" stroke-width="1" font-size="15.0" x="640.0" y="292.5" data-idx="378" style="opacity: 1; font-size: 15px;">LOADING.IO</text></svg>